<?xml version="1.0" encoding="UTF-8"?>
<svg id="Layer_1" data-name="Layer 1" xmlns="http://www.w3.org/2000/svg" viewBox="0 0 192 192">
  <defs>
    <style>
      .cls-1 {
        fill: #fff;
      }

      .cls-2 {
        fill: #e5c274;
      }
    </style>
  </defs>
  <circle class="cls-2" cx="96" cy="96" r="79"/>
  <path class="cls-1" d="M79.61,58.38c1.52-.88,3.81-1.72,6.89-2.51s6.18-1.19,9.3-1.19c4.46,0,8.41,.64,11.84,1.91,3.43,1.28,5.64,3.28,6.62,6.01,1.61,4.58,3.34,9.9,5.22,15.97s3.75,12.34,5.62,18.81,3.7,12.85,5.49,19.14c1.78,6.29,3.34,11.86,4.68,16.7-1.07,1.23-2.67,2.22-4.82,2.97s-4.68,1.12-7.63,1.12c-2.14,0-3.95-.18-5.42-.53-1.47-.35-2.67-.88-3.61-1.58-.94-.7-1.7-1.63-2.28-2.77-.58-1.14-1.09-2.46-1.54-3.96l-2.41-9.11h-24.22c-.72,2.64-1.43,5.37-2.14,8.18-.72,2.82-1.43,5.54-2.14,8.18-1.25,.44-2.56,.81-3.95,1.12s-3.06,.46-5.02,.46c-4.55,0-7.92-.77-10.1-2.31-2.19-1.54-3.28-3.67-3.28-6.4,0-1.23,.18-2.46,.54-3.7,.35-1.23,.76-2.68,1.2-4.35,.62-2.38,1.49-5.32,2.61-8.84,1.11-3.52,2.34-7.33,3.68-11.42,1.34-4.09,2.76-8.29,4.28-12.61,1.52-4.31,2.94-8.38,4.28-12.21,1.34-3.83,2.56-7.24,3.68-10.23,1.11-2.99,1.98-5.28,2.61-6.86Zm16.06,17.03c-1.25,3.7-2.65,7.81-4.22,12.34-1.56,4.53-2.97,9.13-4.21,13.79h16.59c-1.25-4.75-2.52-9.39-3.81-13.93-1.29-4.53-2.48-8.6-3.55-12.21h-.8Z"/>
</svg>