<?xml version="1.0" encoding="UTF-8"?>
<svg id="Layer_1" data-name="Layer 1" xmlns="http://www.w3.org/2000/svg" viewBox="0 0 512 512">
  <defs>
    <style>
      .cls-1 {
        fill: #15203f;
      }
    </style>
  </defs>
  <path class="cls-1" d="M236.74,448.46c-17.83,0-31.93-5.18-42.28-15.55-10.37-10.36-15.54-24.45-15.54-42.28V69.14c4.55-.83,11.81-1.96,21.76-3.42,9.95-1.45,19.48-2.18,28.6-2.18s17.92,.73,25.18,2.18c7.24,1.46,13.37,4.04,18.34,7.77,4.98,3.73,8.71,8.92,11.2,15.55,2.49,6.63,3.73,15.34,3.73,26.12v245.63h142.4c2.89,4.57,5.6,10.68,8.08,18.34,2.49,7.68,3.73,15.65,3.73,23.94,0,16.58-3.53,28.29-10.57,35.13-7.06,6.84-16.38,10.26-27.98,10.26H236.74Z"/>
  <rect class="cls-1" x="70.05" y="79.26" width="72.74" height="72.74" rx="18.51" ry="18.51"/>
  <rect class="cls-1" x="70.05" y="171.26" width="72.74" height="72.74" rx="18.51" ry="18.51"/>
  <rect class="cls-1" x="70.05" y="263.26" width="72.74" height="72.74" rx="18.51" ry="18.51"/>
  <rect class="cls-1" x="70.05" y="355.26" width="72.74" height="72.74" rx="18.51" ry="18.51"/>
</svg>