<?xml version="1.0" encoding="UTF-8"?>
<svg id="Layer_1" data-name="Layer 1" xmlns="http://www.w3.org/2000/svg" viewBox="0 0 3176 512">
  <defs>
    <style>
      .cls-1 {
        fill: #15203f;
      }
    </style>
  </defs>
  <rect class="cls-1" x="98.55" y="79.26" width="72.74" height="72.74" rx="18.51" ry="18.51"/>
  <rect class="cls-1" x="98.55" y="171.26" width="72.74" height="72.74" rx="18.51" ry="18.51"/>
  <rect class="cls-1" x="98.55" y="263.26" width="72.74" height="72.74" rx="18.51" ry="18.51"/>
  <rect class="cls-1" x="98.55" y="355.26" width="72.74" height="72.74" rx="18.51" ry="18.51"/>
  <g>
    <path class="cls-1" d="M277.54,449.93c-17.68,0-31.65-5.13-41.92-15.41-10.28-10.27-15.42-24.24-15.42-41.92V73.89c4.52-.82,11.71-1.94,21.58-3.39,9.86-1.43,19.31-2.16,28.35-2.16s17.78,.72,24.97,2.16c7.19,1.45,13.25,4.01,18.19,7.7,4.93,3.7,8.63,8.84,11.1,15.41,2.47,6.58,3.7,15.21,3.7,25.89v243.5h141.16c2.88,4.53,5.55,10.59,8.02,18.19,2.47,7.61,3.7,15.52,3.7,23.73,0,16.44-3.5,28.05-10.48,34.83-6.99,6.78-16.24,10.17-27.74,10.17h-165.21Z"/>
    <path class="cls-1" d="M499.45,260.68c0-32.05,5.03-60.41,15.11-85.07,10.07-24.66,23.83-45.31,41.3-61.95,17.46-16.64,38-29.28,61.64-37.91,23.63-8.63,49.21-12.95,76.76-12.95s53.11,4.31,76.75,12.95c23.63,8.63,44.27,21.27,61.95,37.91,17.67,16.64,31.54,37.3,41.61,61.95,10.07,24.66,15.1,53.02,15.1,85.07s-4.93,60.52-14.79,85.38c-9.87,24.87-23.54,45.62-41,62.26-17.48,16.64-38.13,29.28-61.96,37.91-23.84,8.63-49.73,12.94-77.67,12.94s-53.85-4.42-77.68-13.25c-23.84-8.83-44.39-21.67-61.65-38.53-17.26-16.85-30.82-37.6-40.69-62.26-9.87-24.66-14.8-52.81-14.8-84.46Zm110.97,0c0,37.4,7.59,65.35,22.8,83.84,15.2,18.5,35.54,27.74,61.04,27.74s46.43-9.25,61.64-27.74c15.2-18.49,22.81-46.43,22.81-83.84s-7.5-64.73-22.5-83.22c-15.01-18.5-35.44-27.74-61.34-27.74s-45.92,9.15-61.34,27.43c-15.41,18.29-23.11,46.14-23.11,83.53Z"/>
    <path class="cls-1" d="M932.81,260.68c0-32.05,5.03-60.41,15.11-85.07,10.07-24.66,23.83-45.31,41.3-61.95,17.46-16.64,38-29.28,61.64-37.91,23.63-8.63,49.21-12.95,76.76-12.95s53.11,4.31,76.75,12.95c23.63,8.63,44.27,21.27,61.95,37.91,17.67,16.64,31.54,37.3,41.61,61.95,10.07,24.66,15.1,53.02,15.1,85.07s-4.93,60.52-14.79,85.38c-9.87,24.87-23.54,45.62-41,62.26-17.48,16.64-38.13,29.28-61.96,37.91-23.84,8.63-49.73,12.94-77.67,12.94s-53.85-4.42-77.68-13.25c-23.84-8.83-44.39-21.67-61.65-38.53-17.26-16.85-30.82-37.6-40.69-62.26-9.87-24.66-14.8-52.81-14.8-84.46Zm110.97,0c0,37.4,7.59,65.35,22.8,83.84,15.2,18.5,35.54,27.74,61.04,27.74s46.43-9.25,61.64-27.74c15.2-18.49,22.81-46.43,22.81-83.84s-7.5-64.73-22.5-83.22c-15.01-18.5-35.44-27.74-61.34-27.74s-45.92,9.15-61.34,27.43c-15.41,18.29-23.11,46.14-23.11,83.53Z"/>
    <path class="cls-1" d="M1492.56,445.62c-4.53,1.23-11.62,2.47-21.27,3.7-9.66,1.23-19.21,1.85-28.66,1.85s-17.78-.72-24.97-2.16c-7.2-1.43-13.25-4.01-18.19-7.7-4.93-3.7-8.63-8.83-11.1-15.41-2.47-6.57-3.7-15.2-3.7-25.89V109.65c0-8.63,2.37-15.31,7.09-20.04,4.72-4.72,11.2-8.52,19.42-11.4,13.96-4.93,29.89-8.52,47.78-10.79,17.88-2.25,35.84-3.39,53.94-3.39,56.71,0,100.07,12.13,130.07,36.37,30,24.25,45,57.13,45,98.63,0,20.14-3.19,38.32-9.55,54.56-6.38,16.24-15.83,30.21-28.36,41.92-12.54,11.71-28.35,20.76-47.47,27.12-19.11,6.38-41.2,9.55-66.27,9.55h-43.76v113.43Zm32.06-197.88c17.26,0,30.51-4.01,39.76-12.02,9.25-8.01,13.87-20.23,13.87-36.68s-4.83-27.63-14.49-36.06c-9.66-8.42-23.73-12.64-42.22-12.64-6.58,0-12.02,.1-16.34,.31-4.31,.21-8.74,.72-13.25,1.54v95.55h32.68Z"/>
    <path class="cls-1" d="M2038.73,165.74c4.52-2.05,11.61-4.41,21.27-7.09,9.65-2.67,19.41-4.01,29.28-4.01,17.26,0,31.64,2.57,43.15,7.7,11.5,5.14,18.5,12.64,20.96,22.5,4.52,16.86,8.72,32.58,12.63,47.16,3.9,14.59,7.71,28.57,11.4,41.92,3.7,13.36,7.29,26.61,10.79,39.76,3.49,13.16,6.88,26.92,10.18,41.3h3.08c3.7-25.06,6.99-49.01,9.87-71.82,2.87-22.81,5.55-45.21,8.01-67.2,2.47-21.98,4.93-43.77,7.4-65.35,2.47-21.57,4.93-43.46,7.4-65.65,15.2-8.63,31.44-12.94,48.7-12.94,15.2,0,28.36,3.29,39.46,9.86,11.1,6.58,16.65,17.68,16.65,33.29,0,9.04-.93,21.88-2.78,38.53-1.85,16.64-4.31,35.24-7.4,55.79-3.08,20.55-6.68,42.13-10.79,64.72-4.11,22.61-8.43,44.19-12.94,64.73-4.53,20.56-9.16,39.15-13.87,55.79-4.73,16.64-9.16,29.49-13.25,38.53-6.17,5.76-16.25,10.48-30.21,14.18-13.98,3.7-28.36,5.55-43.15,5.55-19.32,0-35.66-2.58-49.01-7.71-13.36-5.13-21.48-12.42-24.36-21.88-5.34-16.43-11.1-35.96-17.26-58.57-6.16-22.6-12.74-47.47-19.72-74.59-5.76,26.72-11.71,52.81-17.88,78.29-6.17,25.49-11.71,47.07-16.65,64.73-6.16,5.76-15.41,10.48-27.74,14.18-12.32,3.7-25.89,5.55-40.69,5.55-18.5,0-35.24-2.58-50.24-7.71-15.01-5.13-24.77-12.42-29.28-21.88-3.7-7.4-7.7-18.39-12.02-32.98-4.31-14.58-8.73-31.23-13.25-49.93-4.52-18.7-9.15-38.93-13.87-60.72-4.72-21.78-9.04-43.56-12.94-65.35-3.91-21.78-7.5-43.04-10.79-63.8-3.29-20.74-5.76-39.76-7.4-57.02,5.75-5.34,13.76-10.27,24.05-14.8,10.27-4.52,21.36-6.78,33.29-6.78,15.61,0,28.45,3.39,38.53,10.17,10.07,6.78,16.34,18.19,18.8,34.21,6.56,41.92,12.02,76.85,16.33,104.8,4.31,27.95,7.81,50.86,10.49,68.74,2.67,17.88,4.62,31.75,5.85,41.61,1.24,9.86,2.47,17.68,3.7,23.42h3.08c3.7-16.43,7.19-31.64,10.49-45.62,3.28-13.96,6.67-28.05,10.17-42.22,3.49-14.18,7.09-29.38,10.79-45.62,3.7-16.23,7.6-34.83,11.71-55.79Z"/>
    <path class="cls-1" d="M2398.12,131.84c0-17.66,5.13-31.64,15.42-41.92,10.27-10.27,24.24-15.41,41.92-15.41h203.43c2.88,4.53,5.44,10.48,7.71,17.88,2.25,7.4,3.39,15.21,3.39,23.42,0,15.62-3.39,26.72-10.17,33.29-6.78,6.58-15.72,9.86-26.81,9.86h-130.08v57.33h138.71c2.87,4.52,5.44,10.38,7.7,17.57,2.26,7.19,3.39,14.9,3.39,23.12,0,15.62-3.29,26.72-9.87,33.29-6.57,6.58-15.41,9.87-26.51,9.87h-113.43v64.72h158.43c2.87,4.53,5.44,10.48,7.71,17.88,2.25,7.4,3.39,15.21,3.39,23.42,0,15.62-3.39,26.81-10.17,33.6-6.78,6.78-15.72,10.17-26.81,10.17h-180.01c-17.68,0-31.65-5.13-41.92-15.41-10.28-10.27-15.42-24.24-15.42-41.92V131.84Z"/>
    <path class="cls-1" d="M2880.8,457.95c-6.99,0-15.21-.21-24.66-.61-9.46-.41-19.21-1.23-29.28-2.47-10.08-1.23-20.03-2.78-29.9-4.62-9.86-1.85-18.9-4.41-27.12-7.7-22.6-8.63-33.91-23.63-33.91-45V109.65c0-8.63,2.37-15.31,7.09-20.04,4.72-4.72,11.2-8.52,19.42-11.4,13.96-4.93,31.44-8.52,52.4-10.79,20.95-2.25,42.53-3.39,64.72-3.39,52.6,0,93.09,8.84,121.44,26.51,28.36,17.67,42.54,45,42.54,81.99,0,18.5-5.35,34.43-16.03,47.78-10.69,13.36-25.08,23.12-43.15,29.28,20.54,5.76,37.7,16.24,51.47,31.44,13.76,15.21,20.65,34.32,20.65,57.33,0,40.69-15.1,70.79-45.31,90.31-30.21,19.52-73.67,29.28-130.39,29.28Zm-40.07-237.34h45c17.67,0,30.52-3.29,38.53-9.87,8.02-6.57,12.02-16.23,12.02-28.97,0-11.1-4.62-19.93-13.87-26.51-9.25-6.57-23.12-9.86-41.61-9.86-6.16,0-13.25,.21-21.26,.62-8.02,.41-14.29,1.03-18.8,1.85v72.74Zm0,150.42c5.75,1.65,13.15,2.78,22.19,3.39s17.67,.92,25.89,.92c16.43,0,30.1-3.39,41-10.17,10.89-6.78,16.34-17.36,16.34-31.75,0-13.56-4.53-23.21-13.56-28.97-9.05-5.75-22.81-8.63-41.3-8.63h-50.55v75.21Z"/>
  </g>
</svg>